Metropolis-Light Italic.ufo
<glyph name="numbersign" format="1">
  <advance width="669"/>
  <unicode hex="0023"/>
  <outline>
    <contour>
      <point x="103" y="0" type="line"/>
      <point x="419" y="687" type="line"/>
      <point x="381" y="687" type="line"/>
      <point x="65" y="0" type="line"/>
    </contour>
    <contour>
      <point x="319" y="0" type="line"/>
      <point x="635" y="687" type="line"/>
      <point x="597" y="687" type="line"/>
      <point x="281" y="0" type="line"/>
    </contour>
    <contour>
      <point x="539" y="192" type="line"/>
      <point x="555" y="228" type="line"/>
      <point x="42" y="228" type="line"/>
      <point x="25" y="192" type="line"/>
    </contour>
    <contour>
      <point x="661" y="459" type="line"/>
      <point x="678" y="495" type="line"/>
      <point x="163" y="495" type="line"/>
      <point x="147" y="459" type="line"/>
    </contour>
  </outline>
</glyph>
<glyph name="dollar" format="1">
  <advance width="603"/>
  <unicode hex="0024"/>
  <outline>
    <contour>
      <point x="252" y="-74" type="line"/>
      <point x="425" y="759" type="line"/>
      <point x="389" y="759" type="line"/>
      <point x="216" y="-74" type="line"/>
    </contour>
    <component base="S"/>
  </outline>
</glyph>
<glyph name="ampersand" format="1">
  <advance width="645"/>
  <unicode hex="0026"/>
  <outline>
    <contour>
      <point x="328" y="-12"/>
      <point x="442" y="81"/>
      <point x="604" y="315" type="curve"/>
      <point x="573" y="332" type="line"/>
      <point x="420" y="113"/>
      <point x="316" y="24"/>
      <point x="207" y="24" type="curve" smooth="yes"/>
      <point x="121" y="24"/>
      <point x="58" y="81"/>
      <point x="58" y="154" type="curve" smooth="yes"/>
      <point x="58" y="266"/>
      <point x="180" y="321"/>
      <point x="281" y="358" type="curve" smooth="yes"/>
      <point x="398" y="402"/>
      <point x="513" y="449"/>
      <point x="513" y="566" type="curve" smooth="yes"/>
      <point x="513" y="639"/>
      <point x="458" y="695"/>
      <point x="384" y="695" type="curve" smooth="yes"/>
      <point x="291" y="695"/>
      <point x="195" y="603"/>
      <point x="195" y="509" type="curve" smooth="yes"/>
      <point x="195" y="469"/>
      <point x="211" y="428"/>
      <point x="252" y="363" type="curve" smooth="yes"/>
      <point x="310" y="272"/>
      <point x="374" y="171"/>
      <point x="513" y="-6" type="curve"/>
      <point x="551" y="9" type="line"/>
      <point x="447" y="141"/>
      <point x="346" y="279"/>
      <point x="281" y="379" type="curve" smooth="yes"/>
      <point x="242" y="438"/>
      <point x="231" y="476"/>
      <point x="231" y="509" type="curve" smooth="yes"/>
      <point x="231" y="587"/>
      <point x="308" y="659"/>
      <point x="381" y="659" type="curve" smooth="yes"/>
      <point x="438" y="659"/>
      <point x="477" y="614"/>
      <point x="477" y="562" type="curve" smooth="yes"/>
      <point x="477" y="468"/>
      <point x="371" y="432"/>
      <point x="253" y="388" type="curve" smooth="yes"/>
      <point x="147" y="348"/>
      <point x="23" y="284"/>
      <point x="23" y="151" type="curve" smooth="yes"/>
      <point x="23" y="57"/>
      <point x="100" y="-12"/>
      <point x="206" y="-12" type="curve" smooth="yes"/>
    </contour>
  </outline>
</glyph>
<glyph name="one" format="1">
  <advance width="331"/>
  <unicode hex="0031"/>
  <outline>
    <contour>
      <point x="182" y="0" type="line"/>
      <point x="325" y="687" type="line"/>
      <point x="296" y="687" type="line"/>
      <point x="91" y="572" type="line"/>
      <point x="104" y="542" type="line"/>
      <point x="280" y="640" type="line"/>
      <point x="146" y="0" type="line"/>
    </contour>
  </outline>
</glyph>
<glyph name="two" format="1">
  <advance width="579"/>
  <unicode hex="0032"/>
  <outline>
    <contour>
      <point x="459" y="0" type="line"/>
      <point x="467" y="36" type="line"/>
      <point x="53" y="36" type="line"/>
      <point x="337" y="240" type="line" smooth="yes"/>
      <point x="451" y="323"/>
      <point x="549" y="425"/>
      <point x="549" y="538" type="curve" smooth="yes"/>
      <point x="549" y="626"/>
      <point x="486" y="699"/>
      <point x="377" y="699" type="curve" smooth="yes"/>
      <point x="296" y="699"/>
      <point x="200" y="659"/>
      <point x="119" y="568" type="curve"/>
      <point x="144" y="544" type="line"/>
      <point x="216" y="623"/>
      <point x="302" y="665"/>
      <point x="378" y="665" type="curve" smooth="yes"/>
      <point x="466" y="665"/>
      <point x="513" y="604"/>
      <point x="513" y="535" type="curve" smooth="yes"/>
      <point x="513" y="436"/>
      <point x="422" y="346"/>
      <point x="317" y="269" type="curve" smooth="yes"/>
      <point x="3" y="39" type="line"/>
      <point x="-5" y="0" type="line"/>
    </contour>
  </outline>
</glyph>
<glyph name="three" format="1">
  <advance width="550"/>
  <unicode hex="0033"/>
  <outline>
    <contour>
      <point x="351" y="-12"/>
      <point x="482" y="99"/>
      <point x="482" y="226" type="curve" smooth="yes"/>
      <point x="482" y="291"/>
      <point x="446" y="337"/>
      <point x="385" y="351" type="curve"/>
      <point x="473" y="377"/>
      <point x="533" y="457"/>
      <point x="533" y="543" type="curve" smooth="yes"/>
      <point x="533" y="631"/>
      <point x="460" y="699"/>
      <point x="360" y="699" type="curve" smooth="yes"/>
      <point x="276" y="699"/>
      <point x="195" y="657"/>
      <point x="111" y="569" type="curve"/>
      <point x="135" y="543" type="line"/>
      <point x="207" y="623"/>
      <point x="280" y="663"/>
      <point x="354" y="663" type="curve" smooth="yes"/>
      <point x="437" y="663"/>
      <point x="497" y="607"/>
      <point x="497" y="537" type="curve" smooth="yes"/>
      <point x="497" y="432"/>
      <point x="401" y="366"/>
      <point x="279" y="366" type="curve" smooth="yes"/>
      <point x="218" y="366" type="line"/>
      <point x="210" y="330" type="line"/>
      <point x="274" y="330" type="line" smooth="yes"/>
      <point x="384" y="330"/>
      <point x="445" y="290"/>
      <point x="445" y="221" type="curve" smooth="yes"/>
      <point x="445" y="117"/>
      <point x="334" y="24"/>
      <point x="223" y="24" type="curve" smooth="yes"/>
      <point x="137" y="24"/>
      <point x="77" y="63"/>
      <point x="41" y="144" type="curve"/>
      <point x="11" y="121" type="line"/>
      <point x="60" y="32"/>
      <point x="128" y="-12"/>
      <point x="221" y="-12" type="curve" smooth="yes"/>
    </contour>
  </outline>
</glyph>
<glyph name="four" format="1">
  <advance width="592"/>
  <unicode hex="0034"/>
  <outline>
    <contour>
      <point x="375" y="0" type="line"/>
      <point x="414" y="185" type="line"/>
      <point x="528" y="185" type="line"/>
      <point x="535" y="221" type="line"/>
      <point x="421" y="221" type="line"/>
      <point x="518" y="687" type="line"/>
      <point x="468" y="687" type="line"/>
      <point x="32" y="222" type="line"/>
      <point x="31" y="185" type="line"/>
      <point x="378" y="185" type="line"/>
      <point x="339" y="0" type="line"/>
    </contour>
    <contour>
      <point x="474" y="644" type="line"/>
      <point x="385" y="221" type="line"/>
      <point x="78" y="221" type="line"/>
    </contour>
  </outline>
</glyph>
<glyph name="seven" format="1">
  <advance width="591"/>
  <unicode hex="0037"/>
  <outline>
    <contour>
      <point x="152" y="0" type="line"/>
      <point x="598" y="658" type="line"/>
      <point x="603" y="687" type="line"/>
      <point x="148" y="687" type="line"/>
      <point x="141" y="651" type="line"/>
      <point x="553" y="651" type="line"/>
      <point x="111" y="0" type="line"/>
    </contour>
  </outline>
</glyph>
<glyph name="greater" format="1">
  <advance width="587"/>
  <unicode hex="003E"/>
  <outline>
    <contour>
      <point x="545" y="322" type="line"/>
      <point x="553" y="366" type="line"/>
      <point x="144" y="586" type="line"/>
      <point x="135" y="542" type="line"/>
      <point x="502" y="344" type="line"/>
      <point x="53" y="146" type="line"/>
      <point x="44" y="102" type="line"/>
    </contour>
  </outline>
</glyph>
<glyph name="A" format="1">
  <advance width="710"/>
  <unicode hex="0041"/>
  <outline>
    <contour>
      <point x="560" y="175" type="line"/>
      <point x="567" y="211" type="line"/>
      <point x="128" y="211" type="line"/>
      <point x="121" y="175" type="line"/>
    </contour>
    <component base="V" xOffset="745" yOffset="687" xScale="-1" yScale="-1"/>
    <contour>
      <point x="444" y="687" type="move" name="top"/>
    </contour>
    <contour>
      <point x="623" y="0" type="move" name="bottom"/>
    </contour>
  </outline>
</glyph>
<glyph name="B" format="1">
  <advance width="655"/>
  <unicode hex="0042"/>
  <outline>
    <contour>
      <point x="341" y="0" type="line" smooth="yes"/>
      <point x="471" y="0"/>
      <point x="586" y="99"/>
      <point x="586" y="221" type="curve" smooth="yes"/>
      <point x="586" y="284"/>
      <point x="551" y="338"/>
      <point x="495" y="357" type="curve"/>
      <point x="569" y="381"/>
      <point x="627" y="471"/>
      <point x="627" y="550" type="curve" smooth="yes"/>
      <point x="627" y="632"/>
      <point x="566" y="687"/>
      <point x="469" y="687" type="curve" smooth="yes"/>
      <point x="183" y="687" type="line"/>
      <point x="40" y="0" type="line"/>
    </contour>
    <contour>
      <point x="147" y="340" type="line"/>
      <point x="412" y="340" type="line" smooth="yes"/>
      <point x="498" y="340"/>
      <point x="550" y="293"/>
      <point x="550" y="223" type="curve" smooth="yes"/>
      <point x="550" y="120"/>
      <point x="457" y="36"/>
      <point x="345" y="36" type="curve" smooth="yes"/>
      <point x="84" y="36" type="line"/>
    </contour>
    <contour>
      <point x="212" y="651" type="line"/>
      <point x="464" y="651" type="line" smooth="yes"/>
      <point x="542" y="651"/>
      <point x="591" y="609"/>
      <point x="591" y="548" type="curve" smooth="yes"/>
      <point x="591" y="458"/>
      <point x="513" y="376"/>
      <point x="416" y="376" type="curve" smooth="yes"/>
      <point x="155" y="376" type="line"/>
    </contour>
  </outline>
</glyph>
<glyph name="C" format="1">
  <advance width="684"/>
  <unicode hex="0043"/>
  <outline>
    <contour>
      <point x="440" y="-12"/>
      <point x="548" y="33"/>
      <point x="620" y="92" type="curve"/>
      <point x="597" y="120" type="line"/>
      <point x="531" y="64"/>
      <point x="432" y="24"/>
      <point x="352" y="24" type="curve" smooth="yes"/>
      <point x="220" y="24"/>
      <point x="101" y="134"/>
      <point x="101" y="289" type="curve" smooth="yes"/>
      <point x="101" y="481"/>
      <point x="285" y="663"/>
      <point x="484" y="663" type="curve" smooth="yes"/>
      <point x="578" y="663"/>
      <point x="651" y="622"/>
      <point x="693" y="570" type="curve"/>
      <point x="722" y="593" type="line"/>
      <point x="671" y="655"/>
      <point x="587" y="699"/>
      <point x="485" y="699" type="curve" smooth="yes"/>
      <point x="267" y="699"/>
      <point x="65" y="499"/>
      <point x="65" y="286" type="curve" smooth="yes"/>
      <point x="65" y="110"/>
      <point x="202" y="-12"/>
      <point x="350" y="-12" type="curve" smooth="yes"/>
    </contour>
    <contour>
      <point x="473" y="687" type="move" name="top"/>
    </contour>
    <contour>
      <point x="340" y="0" type="move" name="bottom"/>
    </contour>
  </outline>
</glyph>
<glyph name="D" format="1">
  <advance width="745"/>
  <unicode hex="0044"/>
  <outline>
    <contour>
      <point x="277" y="0" type="line" smooth="yes"/>
      <point x="510" y="0"/>
      <point x="707" y="192"/>
      <point x="707" y="421" type="curve" smooth="yes"/>
      <point x="707" y="577"/>
      <point x="587" y="687"/>
      <point x="417" y="687" type="curve" smooth="yes"/>
      <point x="183" y="687" type="line"/>
      <point x="40" y="0" type="line"/>
    </contour>
    <contour>
      <point x="212" y="651" type="line"/>
      <point x="412" y="651" type="line" smooth="yes"/>
      <point x="564" y="651"/>
      <point x="671" y="554"/>
      <point x="671" y="416" type="curve" smooth="yes"/>
      <point x="671" y="210"/>
      <point x="493" y="36"/>
      <point x="281" y="36" type="curve" smooth="yes"/>
      <point x="84" y="36" type="line"/>
    </contour>
    <contour>
      <point x="417" y="687" type="move" name="top"/>
    </contour>
  </outline>
</glyph>
<glyph name="E" format="1">
  <advance width="609"/>
  <unicode hex="0045"/>
  <outline>
    <contour>
      <point x="476" y="0" type="line"/>
      <point x="484" y="36" type="line"/>
      <point x="60" y="36" type="line"/>
      <point x="67" y="26" type="line"/>
      <point x="132" y="342" type="line"/>
      <point x="121" y="332" type="line"/>
      <point x="515" y="332" type="line"/>
      <point x="522" y="368" type="line"/>
      <point x="130" y="368" type="line"/>
      <point x="136" y="358" type="line"/>
      <point x="198" y="661" type="line"/>
      <point x="187" y="651" type="line"/>
      <point x="612" y="651" type="line"/>
      <point x="619" y="687" type="line"/>
      <point x="168" y="687" type="line"/>
      <point x="25" y="0" type="line"/>
    </contour>
    <contour>
      <point x="394" y="687" type="move" name="top"/>
    </contour>
    <contour>
      <point x="274" y="0" type="move" name="bottom"/>
    </contour>
  </outline>
</glyph>
<glyph name="F" format="1">
  <advance width="587"/>
  <unicode hex="0046"/>
  <outline>
    <contour>
      <point x="61" y="0" type="line"/>
      <point x="132" y="342" type="line"/>
      <point x="120" y="332" type="line"/>
      <point x="525" y="332" type="line"/>
      <point x="532" y="368" type="line"/>
      <point x="129" y="368" type="line"/>
      <point x="136" y="358" type="line"/>
      <point x="198" y="661" type="line"/>
      <point x="186" y="651" type="line"/>
      <point x="632" y="651" type="line"/>
      <point x="639" y="687" type="line"/>
      <point x="168" y="687" type="line"/>
      <point x="25" y="0" type="line"/>
    </contour>
  </outline>
</glyph>
<glyph name="G" format="1">
  <advance width="744"/>
  <unicode hex="0047"/>
  <outline>
    <contour>
      <point x="451" y="-12"/>
      <point x="553" y="27"/>
      <point x="635" y="90" type="curve"/>
      <point x="613" y="117" type="line"/>
      <point x="539" y="60"/>
      <point x="446" y="24"/>
      <point x="353" y="24" type="curve" smooth="yes"/>
      <point x="203" y="24"/>
      <point x="99" y="135"/>
      <point x="99" y="279" type="curve" smooth="yes"/>
      <point x="99" y="475"/>
      <point x="295" y="663"/>
      <point x="491" y="663" type="curve" smooth="yes"/>
      <point x="582" y="663"/>
      <point x="659" y="629"/>
      <point x="710" y="572" type="curve"/>
      <point x="739" y="596" type="line"/>
      <point x="682" y="659"/>
      <point x="596" y="699"/>
      <point x="493" y="699" type="curve" smooth="yes"/>
      <point x="276" y="699"/>
      <point x="63" y="492"/>
      <point x="63" y="275" type="curve" smooth="yes"/>
      <point x="63" y="113"/>
      <point x="182" y="-12"/>
      <point x="351" y="-12" type="curve" smooth="yes"/>
    </contour>
    <contour>
      <point x="635" y="90" type="line"/>
      <point x="687" y="340" type="line"/>
      <point x="412" y="340" type="line"/>
      <point x="405" y="304" type="line"/>
      <point x="658" y="304" type="line"/>
      <point x="647" y="324" type="line"/>
      <point x="599" y="90" type="line"/>
    </contour>
    <contour>
      <point x="491" y="687" type="move" name="top"/>
    </contour>
    <contour>
      <point x="351" y="0" type="move" name="bottom"/>
    </contour>
  </outline>
</glyph>
<glyph name="H" format="1">
  <advance width="677"/>
  <unicode hex="0048"/>
  <outline>
    <contour>
      <point x="61" y="0" type="line"/>
      <point x="133" y="343" type="line"/>
      <point x="129" y="332" type="line"/>
      <point x="578" y="332" type="line"/>
      <point x="580" y="343" type="line"/>
      <point x="508" y="0" type="line"/>
      <point x="544" y="0" type="line"/>
      <point x="687" y="687" type="line"/>
      <point x="651" y="687" type="line"/>
      <point x="583" y="357" type="line"/>
      <point x="586" y="368" type="line"/>
      <point x="137" y="368" type="line"/>
      <point x="136" y="357" type="line"/>
      <point x="204" y="687" type="line"/>
      <point x="168" y="687" type="line"/>
      <point x="25" y="0" type="line"/>
    </contour>
  </outline>
</glyph>
<glyph name="J" format="1">
  <advance width="519"/>
  <unicode hex="004A"/>
  <outline>
    <contour>
      <point x="293" y="-12"/>
      <point x="396" y="81"/>
      <point x="424" y="213" type="curve" smooth="yes"/>
      <point x="522" y="687" type="line"/>
      <point x="486" y="687" type="line"/>
      <point x="388" y="215" type="line" smooth="yes"/>
      <point x="365" y="104"/>
      <point x="277" y="24"/>
      <point x="176" y="24" type="curve" smooth="yes"/>
      <point x="105" y="24"/>
      <point x="47" y="67"/>
      <point x="20" y="129" type="curve"/>
      <point x="-6" y="103" type="line"/>
      <point x="23" y="36"/>
      <point x="90" y="-12"/>
      <point x="174" y="-12" type="curve" smooth="yes"/>
    </contour>
  </outline>
</glyph>
<glyph name="L" format="1">
  <advance width="534"/>
  <unicode hex="004C"/>
  <outline>
    <contour>
      <point x="446" y="0" type="line"/>
      <point x="454" y="36" type="line"/>
      <point x="47" y="36" type="line"/>
      <point x="56" y="24" type="line"/>
      <point x="193" y="687" type="line"/>
      <point x="157" y="687" type="line"/>
      <point x="14" y="0" type="line"/>
    </contour>
    <contour>
      <point x="241" y="687" type="move" name="top"/>
    </contour>
  </outline>
</glyph>
<glyph name="N" format="1">
  <advance width="728"/>
  <unicode hex="004E"/>
  <outline>
    <contour>
      <point x="76" y="0" type="line"/>
      <point x="208" y="631" type="line"/>
      <point x="545" y="0" type="line"/>
      <point x="580" y="0" type="line"/>
      <point x="723" y="687" type="line"/>
      <point x="687" y="687" type="line"/>
      <point x="556" y="56" type="line"/>
      <point x="219" y="687" type="line"/>
      <point x="183" y="687" type="line"/>
      <point x="40" y="0" type="line"/>
    </contour>
    <contour>
      <point x="453" y="687" type="move" name="top"/>
    </contour>
    <contour>
      <point x="311" y="0" type="move" name="bottom"/>
    </contour>
  </outline>
</glyph>
<glyph name="P" format="1">
  <advance width="640"/>
  <unicode hex="0050"/>
  <outline>
    <contour>
      <point x="61" y="0" type="line"/>
      <point x="117" y="267" type="line"/>
      <point x="371" y="267" type="line" smooth="yes"/>
      <point x="524" y="267"/>
      <point x="656" y="375"/>
      <point x="656" y="519" type="curve" smooth="yes"/>
      <point x="656" y="619"/>
      <point x="578" y="687"/>
      <point x="456" y="687" type="curve" smooth="yes"/>
      <point x="168" y="687" type="line"/>
      <point x="25" y="0" type="line"/>
    </contour>
    <contour>
      <point x="197" y="651" type="line"/>
      <point x="444" y="651" type="line" smooth="yes"/>
      <point x="552" y="651"/>
      <point x="620" y="596"/>
      <point x="620" y="514" type="curve" smooth="yes"/>
      <point x="620" y="395"/>
      <point x="503" y="303"/>
      <point x="369" y="303" type="curve" smooth="yes"/>
      <point x="124" y="303" type="line"/>
    </contour>
  </outline>
</glyph>
<glyph name="T" format="1">
  <advance width="630"/>
  <unicode hex="0054"/>
  <outline>
    <contour>
      <point x="279" y="0" type="line"/>
      <point x="415" y="651" type="line"/>
      <point x="667" y="651" type="line"/>
      <point x="674" y="687" type="line"/>
      <point x="134" y="687" type="line"/>
      <point x="127" y="651" type="line"/>
      <point x="379" y="651" type="line"/>
      <point x="243" y="0" type="line"/>
    </contour>
    <contour>
      <point x="405" y="687" type="move" name="top"/>
    </contour>
    <contour>
      <point x="252" y="0" type="move" name="bottom"/>
    </contour>
  </outline>
</glyph>
<glyph name="V" format="1">
  <advance width="710"/>
  <unicode hex="0056"/>
  <outline>
    <contour>
      <point x="321" y="0" type="line"/>
      <point x="767" y="687" type="line"/>
      <point x="726" y="687" type="line"/>
      <point x="280" y="0" type="line"/>
    </contour>
    <contour>
      <point x="320" y="0" type="line"/>
      <point x="160" y="687" type="line"/>
      <point x="121" y="687" type="line"/>
      <point x="281" y="0" type="line"/>
    </contour>
  </outline>
</glyph>
<glyph name="W" format="1">
  <advance width="1033"/>
  <unicode hex="0057"/>
  <outline>
    <contour>
      <point x="252" y="0" type="line"/>
      <point x="594" y="629" type="line"/>
      <point x="673" y="0" type="line"/>
      <point x="712" y="0" type="line"/>
      <point x="1085" y="687" type="line"/>
      <point x="1045" y="687" type="line"/>
      <point x="704" y="58" type="line"/>
      <point x="624" y="687" type="line"/>
      <point x="585" y="687" type="line"/>
      <point x="244" y="58" type="line"/>
      <point x="164" y="687" type="line"/>
      <point x="126" y="687" type="line"/>
      <point x="213" y="0" type="line"/>
    </contour>
    <contour>
      <point x="605" y="687" type="move" name="top"/>
    </contour>
  </outline>
</glyph>
<glyph name="X" format="1">
  <advance width="649"/>
  <unicode hex="0058"/>
  <outline>
    <contour>
      <point x="129" y="687" type="line"/>
      <point x="171" y="687" type="line"/>
      <point x="554" y="0" type="line"/>
      <point x="511" y="0" type="line"/>
    </contour>
    <contour>
      <point x="653" y="687" type="line"/>
      <point x="700" y="687" type="line"/>
      <point x="31" y="0" type="line"/>
      <point x="-16" y="0" type="line"/>
    </contour>
  </outline>
</glyph>
<glyph name="Y" format="1">
  <advance width="632"/>
  <unicode hex="0059"/>
  <outline>
    <contour>
      <point x="279" y="0" type="line"/>
      <point x="338" y="279" type="line"/>
      <point x="703" y="687" type="line"/>
      <point x="656" y="687" type="line"/>
      <point x="324" y="317" type="line"/>
      <point x="147" y="687" type="line"/>
      <point x="107" y="687" type="line"/>
      <point x="302" y="279" type="line"/>
      <point x="243" y="0" type="line"/>
    </contour>
    <contour>
      <point x="402" y="687" type="move" name="top"/>
    </contour>
  </outline>
</glyph>
<glyph name="Z" format="1">
  <advance width="619"/>
  <unicode hex="005A"/>
  <outline>
    <contour>
      <point x="509" y="0" type="line"/>
      <point x="517" y="36" type="line"/>
      <point x="57" y="36" type="line"/>
      <point x="643" y="657" type="line"/>
      <point x="648" y="687" type="line"/>
      <point x="154" y="687" type="line"/>
      <point x="147" y="651" type="line"/>
      <point x="596" y="651" type="line"/>
      <point x="10" y="30" type="line"/>
      <point x="5" y="0" type="line"/>
    </contour>
    <contour>
      <point x="401" y="687" type="move" name="top"/>
    </contour>
  </outline>
</glyph>
<glyph name="bracketleft" format="1">
  <advance width="352"/>
  <unicode hex="005B"/>
  <outline>
    <contour>
      <point x="225" y="-115" type="line"/>
      <point x="232" y="-79" type="line"/>
      <point x="47" y="-79" type="line"/>
      <point x="209" y="698" type="line"/>
      <point x="394" y="698" type="line"/>
      <point x="401" y="734" type="line"/>
      <point x="180" y="734" type="line"/>
      <point x="4" y="-115" type="line"/>
    </contour>
  </outline>
</glyph>
<glyph name="asciicircum" format="1">
  <advance width="470"/>
  <unicode hex="005E"/>
  <outline>
    <contour>
      <point x="131" y="413" type="line"/>
      <point x="317" y="647" type="line"/>
      <point x="405" y="413" type="line"/>
      <point x="448" y="413" type="line"/>
      <point x="345" y="687" type="line"/>
      <point x="303" y="687" type="line"/>
      <point x="86" y="413" type="line"/>
    </contour>
  </outline>
</glyph>
<glyph name="grave" format="1">
  <advance width="292"/>
  <unicode hex="0060"/>
  <outline>
    <contour>
      <point x="295" y="576" type="line"/>
      <point x="199" y="718" type="line"/>
      <point x="157" y="709" type="line"/>
      <point x="248" y="576" type="line"/>
    </contour>
    <contour>
      <point x="250" y="704" type="move" name="top"/>
    </contour>
    <contour>
      <point x="211" y="517" type="move" name="_top"/>
    </contour>
  </outline>
</glyph>
<glyph name="c" format="1">
  <advance width="524"/>
  <unicode hex="0063"/>
  <outline>
    <contour>
      <point x="313" y="-12"/>
      <point x="392" y="19"/>
      <point x="444" y="63" type="curve"/>
      <point x="422" y="90" type="line"/>
      <point x="376" y="51"/>
      <point x="306" y="24"/>
      <point x="255" y="24" type="curve" smooth="yes"/>
      <point x="151" y="24"/>
      <point x="78" y="96"/>
      <point x="78" y="198" type="curve" smooth="yes"/>
      <point x="78" y="358"/>
      <point x="206" y="493"/>
      <point x="358" y="493" type="curve" smooth="yes"/>
      <point x="409" y="493"/>
      <point x="465" y="466"/>
      <point x="494" y="429" type="curve"/>
      <point x="523" y="452" type="line"/>
      <point x="487" y="497"/>
      <point x="420" y="529"/>
      <point x="360" y="529" type="curve" smooth="yes"/>
      <point x="187" y="529"/>
      <point x="42" y="376"/>
      <point x="42" y="195" type="curve" smooth="yes"/>
      <point x="42" y="74"/>
      <point x="129" y="-12"/>
      <point x="253" y="-12" type="curve" smooth="yes"/>
    </contour>
    <contour>
      <point x="352" y="517" type="move" name="top"/>
    </contour>
    <contour>
      <point x="251" y="0" type="move" name="bottom"/>
    </contour>
  </outline>
</glyph>
<glyph name="r" format="1">
  <advance width="348"/>
  <unicode hex="0072"/>
  <outline>
    <contour>
      <point x="151" y="407"/>
      <point x="252" y="493"/>
      <point x="369" y="493" type="curve"/>
      <point x="374" y="529" type="line"/>
      <point x="267" y="529"/>
      <point x="158" y="471"/>
      <point x="134" y="360" type="curve"/>
      <point x="125" y="288" type="line"/>
    </contour>
    <component base="idotless" xOffset="8"/>
    <contour>
      <point x="251" y="517" type="move" name="top"/>
    </contour>
  </outline>
</glyph>
<glyph name="s" format="1">
  <advance width="485"/>
  <unicode hex="0073"/>
  <outline>
    <contour>
      <point x="302" y="-12"/>
      <point x="412" y="53"/>
      <point x="412" y="149" type="curve" smooth="yes"/>
      <point x="412" y="208"/>
      <point x="369" y="246"/>
      <point x="270" y="278" type="curve" smooth="yes"/>
      <point x="180" y="310"/>
      <point x="142" y="341"/>
      <point x="142" y="382" type="curve" smooth="yes"/>
      <point x="142" y="441"/>
      <point x="220" y="493"/>
      <point x="302" y="493" type="curve" smooth="yes"/>
      <point x="353" y="493"/>
      <point x="409" y="475"/>
      <point x="453" y="444" type="curve"/>
      <point x="479" y="470" type="line"/>
      <point x="430" y="506"/>
      <point x="366" y="529"/>
      <point x="304" y="529" type="curve" smooth="yes"/>
      <point x="211" y="529"/>
      <point x="106" y="466"/>
      <point x="106" y="373" type="curve" smooth="yes"/>
      <point x="106" y="318"/>
      <point x="150" y="280"/>
      <point x="252" y="248" type="curve" smooth="yes"/>
      <point x="338" y="218"/>
      <point x="375" y="188"/>
      <point x="375" y="143" type="curve" smooth="yes"/>
      <point x="375" y="70"/>
      <point x="285" y="24"/>
      <point x="207" y="24" type="curve" smooth="yes"/>
      <point x="147" y="24"/>
      <point x="81" y="49"/>
      <point x="30" y="92" type="curve"/>
      <point x="5" y="66" type="line"/>
      <point x="55" y="18"/>
      <point x="129" y="-12"/>
      <point x="205" y="-12" type="curve" smooth="yes"/>
    </contour>
    <contour>
      <point x="308" y="517" type="move" name="top"/>
    </contour>
    <contour>
      <point x="200" y="0" type="move" name="bottom"/>
    </contour>
  </outline>
</glyph>
<glyph name="t" format="1">
  <advance width="362"/>
  <unicode hex="0074"/>
  <outline>
    <contour>
      <point x="213" y="-12"/>
      <point x="250" y="-1"/>
      <point x="282" y="20" type="curve"/>
      <point x="265" y="51" type="line"/>
      <point x="242" y="35"/>
      <point x="212" y="24"/>
      <point x="185" y="24" type="curve" smooth="yes"/>
      <point x="152" y="24"/>
      <point x="132" y="50"/>
      <point x="132" y="89" type="curve" smooth="yes"/>
      <point x="132" y="115"/>
      <point x="137" y="126"/>
      <point x="248" y="659" type="curve"/>
      <point x="212" y="659" type="line"/>
      <point x="103" y="135"/>
      <point x="96" y="115"/>
      <point x="96" y="84" type="curve" smooth="yes"/>
      <point x="96" y="27"/>
      <point x="128" y="-12"/>
      <point x="181" y="-12" type="curve" smooth="yes"/>
    </contour>
    <contour>
      <point x="347" y="481" type="line"/>
      <point x="354" y="517" type="line"/>
      <point x="91" y="517" type="line"/>
      <point x="84" y="481" type="line"/>
    </contour>
    <contour>
      <point x="183" y="0" type="move" name="bottom"/>
    </contour>
  </outline>
</glyph>
<glyph name="u" format="1">
  <advance width="553"/>
  <unicode hex="0075"/>
  <outline>
    <component base="n" xOffset="553" yOffset="517" xScale="-1" yScale="-1"/>
    <contour>
      <point x="333" y="517" type="move" name="top"/>
    </contour>
    <contour>
      <point x="420" y="0" type="move" name="bottom"/>
    </contour>
  </outline>
</glyph>
<glyph name="w" format="1">
  <advance width="793"/>
  <unicode hex="0077"/>
  <outline>
    <contour>
      <point x="196" y="0" type="line"/>
      <point x="438" y="450" type="line"/>
      <point x="492" y="0" type="line"/>
      <point x="537" y="0" type="line"/>
      <point x="814" y="517" type="line"/>
      <point x="777" y="517" type="line"/>
      <point x="524" y="48" type="line"/>
      <point x="467" y="517" type="line"/>
      <point x="436" y="517" type="line"/>
      <point x="183" y="48" type="line"/>
      <point x="126" y="517" type="line"/>
      <point x="89" y="517" type="line"/>
      <point x="151" y="0" type="line"/>
    </contour>
    <contour>
      <point x="452" y="517" type="move" name="top"/>
    </contour>
  </outline>
</glyph>
<glyph name="y" format="1">
  <advance width="567"/>
  <unicode hex="0079"/>
  <outline>
    <contour>
      <point x="108" y="-180"/>
      <point x="166" y="-146"/>
      <point x="208" y="-77" type="curve" smooth="yes"/>
      <point x="574" y="517" type="line"/>
      <point x="535" y="517" type="line"/>
      <point x="230" y="25" type="line"/>
      <point x="123" y="517" type="line"/>
      <point x="84" y="517" type="line"/>
      <point x="202" y="-21" type="line"/>
      <point x="155" y="-93" type="line"/>
      <point x="131" y="-124"/>
      <point x="87" y="-144"/>
      <point x="42" y="-144" type="curve" smooth="yes"/>
      <point x="18" y="-144"/>
      <point x="-5" y="-138"/>
      <point x="-26" y="-127" type="curve"/>
      <point x="-41" y="-162" type="line"/>
      <point x="-20" y="-173"/>
      <point x="9" y="-180"/>
      <point x="40" y="-180" type="curve" smooth="yes"/>
    </contour>
    <contour>
      <point x="333" y="517" type="move" name="top"/>
    </contour>
  </outline>
</glyph>
<glyph name="z" format="1">
  <advance width="514"/>
  <unicode hex="007A"/>
  <outline>
    <contour>
      <point x="408" y="0" type="line"/>
      <point x="416" y="36" type="line"/>
      <point x="56" y="36" type="line"/>
      <point x="508" y="487" type="line"/>
      <point x="514" y="517" type="line"/>
      <point x="114" y="517" type="line"/>
      <point x="107" y="481" type="line"/>
      <point x="459" y="481" type="line"/>
      <point x="6" y="30" type="line"/>
      <point x="1" y="0" type="line"/>
    </contour>
    <contour>
      <point x="313" y="517" type="move" name="top"/>
    </contour>
  </outline>
</glyph>
<glyph name="bar" format="1">
  <advance width="254"/>
  <unicode hex="007C"/>
  <outline>
    <contour>
      <point x="76" y="-74" type="line"/>
      <point x="246" y="743" type="line"/>
      <point x="210" y="743" type="line"/>
      <point x="40" y="-74" type="line"/>
    </contour>
  </outline>
</glyph>
<glyph name="paragraph" format="1">
  <advance width="577"/>
  <unicode hex="00B6"/>
  <outline>
    <contour>
      <point x="233" y="-50" type="line"/>
      <point x="379" y="651" type="line"/>
      <point x="513" y="651" type="line"/>
      <point x="367" y="-50" type="line"/>
      <point x="403" y="-50" type="line"/>
      <point x="556" y="687" type="line"/>
      <point x="341" y="687" type="line"/>
      <point x="204" y="687"/>
      <point x="85" y="585"/>
      <point x="85" y="456" type="curve" smooth="yes"/>
      <point x="85" y="364"/>
      <point x="155" y="303"/>
      <point x="272" y="303" type="curve"/>
      <point x="197" y="-50" type="line"/>
    </contour>
  </outline>
</glyph>
<glyph name="Eth" format="1">
  <advance width="777"/>
  <unicode hex="00D0"/>
  <outline>
    <contour>
      <point x="406" y="332" type="line"/>
      <point x="414" y="368" type="line"/>
      <point x="65" y="368" type="line"/>
      <point x="58" y="332" type="line"/>
    </contour>
    <component base="D" xOffset="31"/>
  </outline>
</glyph>
<glyph name="multiply" format="1">
  <advance width="515"/>
  <unicode hex="00D7"/>
  <outline>
    <contour>
      <point x="480" y="484" type="line"/>
      <point x="458" y="509" type="line"/>
      <point x="68" y="185" type="line"/>
      <point x="89" y="159" type="line"/>
    </contour>
    <contour>
      <point x="417" y="185" type="line"/>
      <point x="159" y="509" type="line"/>
      <point x="129" y="484" type="line"/>
      <point x="388" y="159" type="line"/>
    </contour>
  </outline>
</glyph>
<glyph name="Thorn" format="1">
  <advance width="640"/>
  <unicode hex="00DE"/>
  <outline>
    <contour>
      <point x="61" y="0" type="line"/>
      <point x="90" y="136" type="line"/>
      <point x="344" y="136" type="line" smooth="yes"/>
      <point x="497" y="136"/>
      <point x="629" y="244"/>
      <point x="629" y="388" type="curve" smooth="yes"/>
      <point x="629" y="488"/>
      <point x="551" y="556"/>
      <point x="429" y="556" type="curve" smooth="yes"/>
      <point x="177" y="556" type="line"/>
      <point x="204" y="687" type="line"/>
      <point x="168" y="687" type="line"/>
      <point x="25" y="0" type="line"/>
    </contour>
    <contour>
      <point x="170" y="520" type="line"/>
      <point x="417" y="520" type="line" smooth="yes"/>
      <point x="525" y="520"/>
      <point x="593" y="465"/>
      <point x="593" y="383" type="curve" smooth="yes"/>
      <point x="593" y="264"/>
      <point x="476" y="172"/>
      <point x="342" y="172" type="curve" smooth="yes"/>
      <point x="97" y="172" type="line"/>
    </contour>
  </outline>
</glyph>
<glyph name="idotless" format="1">
  <advance width="186"/>
  <unicode hex="0131"/>
  <outline>
    <contour>
      <point x="57" y="0" type="line"/>
      <point x="165" y="517" type="line"/>
      <point x="129" y="517" type="line"/>
      <point x="21" y="0" type="line"/>
    </contour>
    <contour>
      <point x="147" y="517" type="move" name="top"/>
    </contour>
    <contour>
      <point x="57" y="0" type="move" name="bottom"/>
    </contour>
  </outline>
</glyph>
<glyph name="breve" format="1">
  <advance width="418"/>
  <unicode hex="02D8"/>
  <outline>
    <contour>
      <point x="331" y="589"/>
      <point x="388" y="608"/>
      <point x="436" y="648" type="curve"/>
      <point x="414" y="676" type="line"/>
      <point x="375" y="644"/>
      <point x="327" y="626"/>
      <point x="282" y="626" type="curve" smooth="yes"/>
      <point x="239" y="626"/>
      <point x="199" y="642"/>
      <point x="174" y="674" type="curve"/>
      <point x="144" y="650" type="line"/>
      <point x="177" y="610"/>
      <point x="225" y="589"/>
      <point x="280" y="589" type="curve" smooth="yes"/>
    </contour>
    <contour>
      <point x="301" y="704" type="move" name="top"/>
    </contour>
    <contour>
      <point x="262" y="517" type="move" name="_top"/>
    </contour>
  </outline>
</glyph>
<glyph name="tilde" format="1">
  <advance width="370"/>
  <unicode hex="02DC"/>
  <outline>
    <contour>
      <point x="368" y="586"/>
      <point x="408" y="625"/>
      <point x="431" y="693" type="curve"/>
      <point x="396" y="702" type="line"/>
      <point x="377" y="652"/>
      <point x="349" y="622"/>
      <point x="322" y="622" type="curve" smooth="yes"/>
      <point x="282" y="622"/>
      <point x="267" y="688"/>
      <point x="207" y="688" type="curve" smooth="yes"/>
      <point x="160" y="688"/>
      <point x="119" y="649"/>
      <point x="96" y="581" type="curve"/>
      <point x="131" y="572" type="line"/>
      <point x="149" y="622"/>
      <point x="178" y="652"/>
      <point x="205" y="652" type="curve" smooth="yes"/>
      <point x="245" y="652"/>
      <point x="260" y="586"/>
      <point x="320" y="586" type="curve" smooth="yes"/>
    </contour>
    <contour>
      <point x="278" y="704" type="move" name="top"/>
    </contour>
    <contour>
      <point x="239" y="517" type="move" name="_top"/>
    </contour>
  </outline>
</glyph>
<glyph name="euro" format="1">
  <advance width="684"/>
  <unicode hex="20AC"/>
  <outline>
    <contour>
      <point x="471" y="252" type="line"/>
      <point x="478" y="288" type="line"/>
      <point x="-18" y="288" type="line"/>
      <point x="-25" y="252" type="line"/>
    </contour>
    <contour>
      <point x="506" y="419" type="line"/>
      <point x="513" y="455" type="line"/>
      <point x="17" y="455" type="line"/>
      <point x="10" y="419" type="line"/>
    </contour>
    <component base="C"/>
  </outline>
</glyph>
<glyph name="minus" format="1">
  <advance width="594"/>
  <unicode hex="2212"/>
  <outline>
    <contour>
      <point x="538" y="316" type="line"/>
      <point x="546" y="352" type="line"/>
      <point x="87" y="352" type="line"/>
      <point x="79" y="316" type="line"/>
    </contour>
  </outline>
</glyph>
<glyph name="lowercase_loop_reverse" format="1">
  <advance width="606"/>
  <outline>
    <contour>
      <point x="432" y="-12"/>
      <point x="569" y="145"/>
      <point x="569" y="331" type="curve" smooth="yes"/>
      <point x="569" y="455"/>
      <point x="499" y="529"/>
      <point x="381" y="529" type="curve" smooth="yes"/>
      <point x="232" y="529"/>
      <point x="83" y="365"/>
      <point x="83" y="200" type="curve" smooth="yes"/>
      <point x="83" y="76"/>
      <point x="160" y="-12"/>
      <point x="269" y="-12" type="curve" smooth="yes"/>
    </contour>
    <contour>
      <point x="184" y="24"/>
      <point x="119" y="98"/>
      <point x="119" y="202" type="curve" smooth="yes"/>
      <point x="119" y="348"/>
      <point x="247" y="493"/>
      <point x="374" y="493" type="curve" smooth="yes"/>
      <point x="473" y="493"/>
      <point x="532" y="429"/>
      <point x="532" y="321" type="curve" smooth="yes"/>
      <point x="532" y="160"/>
      <point x="415" y="24"/>
      <point x="276" y="24" type="curve" smooth="yes"/>
    </contour>
  </outline>
</glyph>
